<?xml version="1.0" standalone="no"?><!DOCTYPE svg PUBLIC "-//W3C//DTD SVG 1.1//EN" "http://www.w3.org/Graphics/SVG/1.1/DTD/svg11.dtd"><svg class="icon" width="32px" height="32.00px" viewBox="0 0 1024 1024" version="1.1" xmlns="http://www.w3.org/2000/svg"><path d="M959.4 635.9c0 18.8-7.2 36.9-20.5 53.8-53.3 68-205.5 117.1-384.9 117.1-179.4 0-331.6-49.2-384.9-117.1-13.3-16.9-20.5-35-20.5-53.8C148.6 541.5 330.2 465 554 465c223.7 0 405.4 76.6 405.4 170.9z m0 0" fill="#FFE05C" /><path d="M821.5 635.9c0 12.4-4.7 24.3-13.6 35.5-35.2 44.8-135.7 77.3-254.1 77.3S335 716.3 299.7 671.5c-8.9-11.2-13.6-23.1-13.6-35.5 0-62.3 119.9-112.8 267.7-112.8 147.8-0.1 267.7 50.4 267.7 112.7z m0 0" fill="#FFCD59" /><path d="M800.4 680c2.8-2.8 5.4-5.6 7.6-8.5 8.9-11.2 13.6-23.1 13.6-35.5 0-62.3-119.9-112.8-267.7-112.8-146 0-264.9 49.3-267.7 110.6C327 593.3 422 565 532.7 565c147.8 0 267.7 50.5 267.7 112.8 0.1 0.7 0 1.4 0 2.2z m0 0" fill="#FF823C" /><path d="M571.1 691.1l-80.9 22.6 15.5-48-65.4-34 90.4-6.9 40.5-43.7 40.3 43.7 90.4 6.9-65.4 34 15.5 48-80.9-22.6z m0 0" fill="#FFFB59" /><path d="M959.4 635.9v107.5c0 94.4-181.6 170.9-405.4 170.9-223.8 0-405.4-76.5-405.4-170.9V635.9c0 18.8 7.2 36.9 20.5 53.8 53.3 68 205.5 117.1 384.9 117.1 179.4 0 331.6-49.2 384.9-117.1 13.3-16.9 20.5-34.9 20.5-53.8z" fill="#E29E07" /><path d="M874.7 468.4c0 18.8-7.2 36.9-20.5 53.8-53.3 68-205.5 117.1-384.9 117.1-179.4 0-331.6-49.2-384.9-117.1-13.3-16.9-20.5-35-20.5-53.8 0-94.4 181.6-170.9 405.4-170.9 223.8 0.1 405.4 76.6 405.4 170.9z m0 0" fill="#FFE05C" /><path d="M736.9 468.4c0 12.4-4.7 24.3-13.6 35.5-35.2 44.9-135.7 77.3-254.1 77.3s-218.8-32.5-254.1-77.3c-8.9-11.2-13.6-23.1-13.6-35.5 0-62.3 119.9-112.8 267.7-112.8 147.8 0 267.7 50.5 267.7 112.8z m0 0" fill="#F9B200" /><path d="M715.7 512.5c2.8-2.8 5.4-5.6 7.6-8.5 8.9-11.2 13.6-23.1 13.6-35.5 0-62.3-119.9-112.8-267.7-112.8-146 0-264.9 49.3-267.7 110.6 40.8-40.5 135.8-68.8 246.5-68.8 147.8 0 267.7 50.5 267.7 112.8 0.1 0.7 0 1.5 0 2.2z m0 0" fill="#FF823C" /><path d="M486.5 523.6l-80.9 22.6 15.5-48-65.3-34 90.3-6.9 40.5-43.7 40.3 43.7 90.4 6.9-65.4 34 15.5 48-80.9-22.6z m0 0" fill="#FFFB59" /><path d="M874.7 468.4v107.5c0 94.4-181.6 170.9-405.4 170.9-223.8 0-405.5-76.5-405.5-170.9V468.4c0 18.8 7.2 36.9 20.5 53.8 53.3 68 205.5 117.1 384.9 117.1 179.4 0 331.6-49.2 384.9-117.1 13.5-16.9 20.6-34.9 20.6-53.8z" fill="#E29E07" /><path d="M938.2 280.1c0 18.8-7.2 36.9-20.5 53.8-53.4 68-205.5 117.1-384.9 117.1-179.4 0-331.6-49.2-384.9-117.1-13.3-16.9-20.5-35-20.5-53.8 0-94.3 181.6-170.9 405.4-170.9 223.7 0 405.4 76.4 405.4 170.9z m0 0" fill="#FFE05C" /><path d="M800.5 280.1c0 12.4-4.7 24.3-13.6 35.5-35.2 44.9-135.7 77.3-254.1 77.3S314 360.4 278.7 315.6c-8.9-11.2-13.6-23.1-13.6-35.5 0-62.3 119.9-112.8 267.7-112.8 147.8 0 267.7 50.5 267.7 112.8z m0 0" fill="#F9B200" /><path d="M779.2 324c2.8-2.8 5.4-5.6 7.6-8.5 8.9-11.2 13.6-23.1 13.6-35.5 0-62.3-119.9-112.8-267.7-112.8-146 0-264.9 49.3-267.7 110.6 40.8-40.5 135.8-68.8 246.5-68.8 147.8 0 267.7 50.5 267.7 112.8 0.1 0.9 0.1 1.5 0 2.2z m0 0" fill="#E29E07" /><path d="M549.9 335.2l-80.8 22.6 15.4-48-65.3-34 90.3-7.1 40.5-43.6 40.5 43.6 90.3 7.1-65.3 34 15.4 48-81-22.6z m0 0" fill="#FFDD50" /><path d="M938.2 280.1v107.5c0 94.4-181.6 170.9-405.4 170.9-223.8 0-405.4-76.5-405.4-170.9V280.1c0 18.8 7.2 36.9 20.5 53.8 53.3 68 205.5 117.1 384.9 117.1 179.4 0 331.6-49.2 384.9-117.1 13.3-17.1 20.5-35.1 20.5-53.8z" fill="#E29E07" /></svg>