<?xml version="1.0" standalone="no"?><!DOCTYPE svg PUBLIC "-//W3C//DTD SVG 1.1//EN" "http://www.w3.org/Graphics/SVG/1.1/DTD/svg11.dtd"><svg class="icon" width="32px" height="32.00px" viewBox="0 0 1024 1024" version="1.1" xmlns="http://www.w3.org/2000/svg"><path d="M512 1024a512 512 0 1 1 512-512 512 512 0 0 1-512 512zM307.2 268.8a102.4 102.4 0 0 0-102.4 102.4v281.6a102.4 102.4 0 0 0 102.4 102.4h409.6a102.4 102.4 0 0 0 102.4-102.4V371.2a102.4 102.4 0 0 0-102.4-102.4z m460.8 140.8H256v-12.8a76.8 76.8 0 0 1 76.8-76.8h358.4a76.8 76.8 0 0 1 76.8 76.8z m0 51.2v166.4a76.8 76.8 0 0 1-76.8 76.8H332.8a76.8 76.8 0 0 1-76.8-76.8V460.8z m-460.8 25.6a25.6 25.6 0 0 0 0 51.2h217.6a25.6 25.6 0 0 0 0-51.2z m371.2 38.4a25.6 25.6 0 0 0 0 51.2h25.6a25.6 25.6 0 0 0 0-51.2z m0 64a25.6 25.6 0 0 0 0 51.2h25.6a25.6 25.6 0 0 0 0-51.2z" fill="#1296db" /></svg>