<?xml version="1.0" standalone="no"?><!DOCTYPE svg PUBLIC "-//W3C//DTD SVG 1.1//EN" "http://www.w3.org/Graphics/SVG/1.1/DTD/svg11.dtd"><svg class="icon" width="32px" height="32.00px" viewBox="0 0 1024 1024" version="1.1" xmlns="http://www.w3.org/2000/svg"><path d="M512 9.423313c-277.67362 0-502.576687 224.903067-502.576687 502.576687s224.903067 502.576687 502.576687 502.576687 502.576687-224.903067 502.576687-502.576687-224.903067-502.576687-502.576687-502.576687z m42.719018 760.77546v81.040491h-69.104294V772.711656c-47.744785-5.653988-101.143558-27.013497-138.208589-60.937423l45.231902-69.104294c38.321472 30.154601 75.386503 47.744785 115.592638 47.744785 49.001227 0 71.617178-21.98773 71.617178-61.565644 0-94.233129-212.966871-86.066258-212.966871-232.441718 0-76.014724 45.231902-128.785276 118.733742-142.606135V172.760736h69.104294v79.784049c50.257669 6.910429 86.066258 32.039264 116.220859 63.450307l-51.51411 59.052761c-28.89816-26.385276-54.026994-41.462577-89.835583-41.462577-41.462577 0-64.078528 19.474847-64.078528 57.796319C465.511656 478.076074 678.478528 464.883436 678.478528 621.310429c-0.628221 76.642945-43.347239 133.811043-123.75951 148.888344z" fill="#d81e06" /></svg>