<?xml version="1.0" standalone="no"?><!DOCTYPE svg PUBLIC "-//W3C//DTD SVG 1.1//EN" "http://www.w3.org/Graphics/SVG/1.1/DTD/svg11.dtd"><svg class="icon" width="32px" height="32.00px" viewBox="0 0 1024 1024" version="1.1" xmlns="http://www.w3.org/2000/svg"><path d="M730.9 422.5c-126.2 0-228.4 102.4-228.4 228.5S604.8 879.5 731 879.5c126.3 0 228.5-102.3 228.5-228.5S857.2 422.5 730.9 422.5z m85.9 280.1c9.5 0 17.3 7.8 17.3 17.3s-7.8 17.3-17.3 17.3h-69V789c0 9.5-7.8 17.3-17.3 17.3s-17.3-7.8-17.3-17.3v-51.8h-69c-9.5 0-17.3-7.8-17.3-17.3s7.8-17.3 17.3-17.3h69v-51.8h-69c-9.5 0-17.3-7.8-17.3-17.3s7.8-17.3 17.3-17.3h44.9l-56.1-56c-6.9-6.9-6.9-17.3 0-24.2 6.9-6.9 17.3-6.9 24.2 0l73.3 73.3 73.3-73.3c6.9-6.9 17.3-6.9 24.2 0 6.9 6.9 6.9 17.3 0 24.2l-56 56.1h44.9c9.5 0 17.3 7.8 17.3 17.3s-7.8 17.3-17.3 17.3h-69v51.8h68.9zM898.5 145.3H103.2c-22.1 0-40.1 18.1-40.1 40.1V268.4h875.6v-83c0-22-18.1-40.1-40.2-40.1z" fill="#ed851e" /><path d="M63.1 315v437.5c0 22.1 18.1 40.1 40.1 40.1h386.6C465.2 751.2 451 702.8 451 651c0-52.3 14.5-101.2 39.5-142.9 12-22.2 34.8-46.2 34.8-46.2 50.7-54.5 123-88.6 203.3-88.6 83.9 0 159.1 37.2 209.9 95.9V315H63.1z m128.3 372.5c-9.4 9.4-24.8 9.4-34.2 0-9.4-9.4-9.4-24.7 0-34.2l65-65 34.2 34.1-65 65.1z m186.1 0.6c-9.4 9.4-24.7 9.4-34.2 0l-135-135c-23.9 6.4-54.5-2.8-77.9-26.2-31.3-31.3-37.1-76.7-13.2-100.6 23.9-24.8 69.3-18.2 100.6 13.2 24.2 23.5 33.1 56 25.5 80.3L377.5 654c9.4 9.4 9.4 24.7 0 34.1z m5-153.7c-8 8.1-18.6 12.1-29.2 12.1-5.9 0-11.7-1.4-17.1-3.8l-24.7 24.7-34.2-34.2 25.5-25.5c-1.6-4.5-2.6-9.2-2.6-14.2 0-11 4.3-21.4 12-29.2l59.3-59.3 12.9 12.9-52 52c-1.6 1.6-2.5 3.7-2.5 6s0.9 4.4 2.5 6l2.4 2.4c1.7 1.7 3.8 2.5 6 2.5s4.3-0.8 6-2.5l51.9-52 15.7 15.7-52 52c-1.6 1.6-2.5 3.7-2.5 6s0.9 4.4 2.5 6l2.4 2.4c1.7 1.7 3.8 2.5 6 2.5s4.3-0.8 6-2.5l52-52 12.9 12.9-59.2 59.1z" fill="#ed851e" /></svg>